<svg width="664" height="580" viewBox="0 0 664 580" fill="none" xmlns="http://www.w3.org/2000/svg">
<g clip-path="url(#clip0_0_3)">
<path d="M511.2 129.575H154.791C151.183 129.571 147.724 128.135 145.172 125.584C142.621 123.033 141.186 119.574 141.182 115.966V13.609C141.186 10.001 142.621 6.54191 145.172 3.99063C147.724 1.43935 151.183 0.00421217 154.791 3.05176e-05H541.365C544.973 0.00421481 548.432 1.43935 550.983 3.99063C553.535 6.54191 554.97 10.001 554.974 13.609V85.8007C554.961 97.4063 550.345 108.533 542.139 116.739C533.932 124.946 522.806 129.562 511.2 129.575Z" fill="#F2F2F2"/>
<path d="M388.26 36.403H225.506C224.575 36.403 223.683 36.0332 223.025 35.375C222.366 34.7168 221.997 33.8241 221.997 32.8932C221.997 31.9624 222.366 31.0697 223.025 30.4115C223.683 29.7532 224.575 29.3835 225.506 29.3835H388.26C389.19 29.3835 390.083 29.7532 390.741 30.4115C391.4 31.0697 391.769 31.9624 391.769 32.8932C391.769 33.8241 391.4 34.7168 390.741 35.375C390.083 36.0332 389.19 36.403 388.26 36.403Z" fill="#6C63FF"/>
<path d="M470.648 50.7581H225.506C224.575 50.7581 223.683 50.3883 223.025 49.7301C222.366 49.0719 221.997 48.1792 221.997 47.2483C221.997 46.3175 222.366 45.4248 223.025 44.7666C223.683 44.1083 224.575 43.7386 225.506 43.7386H470.648C471.579 43.7386 472.472 44.1083 473.13 44.7666C473.788 45.4248 474.158 46.3175 474.158 47.2483C474.158 48.1792 473.788 49.0719 473.13 49.7301C472.472 50.3883 471.579 50.7581 470.648 50.7581Z" fill="white"/>
<path d="M470.648 67.2358H225.506C224.575 67.2358 223.683 66.8661 223.025 66.2078C222.366 65.5496 221.997 64.6569 221.997 63.726C221.997 62.7952 222.366 61.9025 223.025 61.2443C223.683 60.5861 224.575 60.2163 225.506 60.2163H470.648C471.579 60.2163 472.472 60.5861 473.13 61.2443C473.788 61.9025 474.158 62.7952 474.158 63.726C474.158 64.6569 473.788 65.5496 473.13 66.2078C472.472 66.8661 471.579 67.2358 470.648 67.2358Z" fill="white"/>
<path d="M470.648 83.7135H225.506C224.575 83.7135 223.683 83.3438 223.025 82.6855C222.366 82.0273 221.997 81.1346 221.997 80.2038C221.997 79.2729 222.366 78.3802 223.025 77.722C223.683 77.0638 224.575 76.694 225.506 76.694H470.648C471.579 76.694 472.472 77.0638 473.13 77.722C473.788 78.3802 474.158 79.2729 474.158 80.2038C474.158 81.1346 473.788 82.0273 473.13 82.6855C472.472 83.3438 471.579 83.7135 470.648 83.7135Z" fill="white"/>
<path d="M470.648 100.191H225.506C225.045 100.192 224.588 100.102 224.161 99.9258C223.735 99.7498 223.347 99.4913 223.021 99.1653C222.694 98.8394 222.435 98.4522 222.258 98.026C222.082 97.5998 221.991 97.1429 221.991 96.6815C221.991 96.2201 222.082 95.7632 222.258 95.337C222.435 94.9108 222.694 94.5236 223.021 94.1976C223.347 93.8716 223.735 93.6132 224.161 93.4372C224.588 93.2611 225.045 93.1709 225.506 93.1717H470.648C471.578 93.1733 472.469 93.5437 473.126 94.2018C473.783 94.8598 474.152 95.7516 474.152 96.6815C474.152 97.6113 473.783 98.5031 473.126 99.1612C472.469 99.8192 471.578 100.19 470.648 100.191Z" fill="white"/>
<path d="M418.545 223.754H13.609C10.001 223.75 6.54191 222.315 3.99063 219.764C1.43935 217.212 0.00421217 213.753 3.05176e-05 210.145V89.4222C0.00421217 85.8142 1.43935 82.3551 3.99063 79.8038C6.54191 77.2526 10.001 75.8174 13.609 75.8132H418.545C422.153 75.8174 425.612 77.2526 428.163 79.8038C430.714 82.3551 432.149 85.8142 432.154 89.4222V210.145C432.149 213.753 430.714 217.212 428.163 219.764C425.612 222.315 422.153 223.75 418.545 223.754Z" fill="#E6E6E6"/>
<path d="M379.2 214.575H22.7907C19.1827 214.571 15.7236 213.135 13.1723 210.584C10.621 208.033 9.18588 204.574 9.1817 200.966V98.609C9.18588 95.001 10.621 91.5419 13.1723 88.9906C15.7236 86.4394 19.1827 85.0042 22.7907 85H409.365C412.973 85.0042 416.432 86.4394 418.983 88.9906C421.535 91.5419 422.97 95.001 422.974 98.609V170.801C422.961 182.406 418.345 193.533 410.139 201.739C401.932 209.946 390.806 214.562 379.2 214.575Z" fill="white"/>
<path d="M295.269 121.02H132.516C131.585 121.02 130.692 120.65 130.034 119.992C129.376 119.333 129.006 118.441 129.006 117.51C129.006 116.579 129.376 115.686 130.034 115.028C130.692 114.37 131.585 114 132.516 114H295.269C296.2 114 297.092 114.37 297.751 115.028C298.409 115.686 298.779 116.579 298.779 117.51C298.779 118.441 298.409 119.333 297.751 119.992C297.092 120.65 296.2 121.02 295.269 121.02Z" fill="#6C63FF"/>
<path d="M377.657 135.375H132.516C131.585 135.375 130.692 135.005 130.034 134.347C129.376 133.688 129.006 132.796 129.006 131.865C129.006 130.934 129.376 130.041 130.034 129.383C130.692 128.725 131.585 128.355 132.516 128.355H377.657C378.588 128.355 379.481 128.725 380.139 129.383C380.798 130.041 381.167 130.934 381.167 131.865C381.167 132.796 380.798 133.688 380.139 134.347C379.481 135.005 378.588 135.375 377.657 135.375Z" fill="#E6E6E6"/>
<path d="M377.657 151.852H132.516C131.585 151.852 130.692 151.483 130.034 150.824C129.376 150.166 129.006 149.273 129.006 148.343C129.006 147.412 129.376 146.519 130.034 145.861C130.692 145.203 131.585 144.833 132.516 144.833H377.657C378.588 144.833 379.481 145.203 380.139 145.861C380.798 146.519 381.167 147.412 381.167 148.343C381.167 149.273 380.798 150.166 380.139 150.824C379.481 151.483 378.588 151.852 377.657 151.852Z" fill="#E6E6E6"/>
<path d="M377.657 168.33H132.516C131.585 168.33 130.692 167.96 130.034 167.302C129.376 166.644 129.006 165.751 129.006 164.82C129.006 163.889 129.376 162.997 130.034 162.339C130.692 161.68 131.585 161.311 132.516 161.311H377.657C378.588 161.311 379.481 161.68 380.139 162.339C380.798 162.997 381.167 163.889 381.167 164.82C381.167 165.751 380.798 166.644 380.139 167.302C379.481 167.96 378.588 168.33 377.657 168.33Z" fill="#E6E6E6"/>
<path d="M377.657 184.808H132.516C132.054 184.809 131.597 184.718 131.171 184.542C130.744 184.366 130.357 184.108 130.03 183.782C129.704 183.456 129.444 183.069 129.268 182.643C129.091 182.216 129 181.759 129 181.298C129 180.837 129.091 180.38 129.268 179.954C129.444 179.527 129.704 179.14 130.03 178.814C130.357 178.488 130.744 178.23 131.171 178.054C131.597 177.878 132.054 177.787 132.516 177.788H377.657C378.587 177.79 379.479 178.16 380.135 178.818C380.792 179.476 381.161 180.368 381.161 181.298C381.161 182.228 380.792 183.12 380.135 183.778C379.479 184.436 378.587 184.806 377.657 184.808Z" fill="#E6E6E6"/>
<path d="M216.077 317.257C210.902 317.257 205.844 315.723 201.541 312.848C197.238 309.973 193.885 305.887 191.905 301.106C189.924 296.325 189.406 291.064 190.416 285.989C191.425 280.914 193.917 276.252 197.576 272.593C201.235 268.934 205.897 266.442 210.973 265.432C216.048 264.423 221.308 264.941 226.089 266.921C230.87 268.901 234.956 272.255 237.831 276.558C240.706 280.86 242.241 285.919 242.241 291.093C242.241 298.032 239.484 304.687 234.577 309.594C229.671 314.501 223.016 317.257 216.077 317.257Z" fill="#6C63FF"/>
<path d="M67 188C59.4843 188 52.1374 185.771 45.8883 181.596C39.6393 177.42 34.7687 171.486 31.8926 164.542C29.0165 157.598 28.2639 149.958 29.7302 142.587C31.1964 135.215 34.8156 128.444 40.13 123.13C45.4444 117.816 52.2153 114.196 59.5866 112.73C66.9579 111.264 74.5984 112.016 81.542 114.893C88.4856 117.769 94.4204 122.639 98.5959 128.888C102.771 135.137 105 142.484 105 150C105 160.078 100.996 169.744 93.8701 176.87C86.7437 183.996 77.0782 188 67 188V188Z" fill="#6C63FF"/>
<path d="M292.624 317.257C287.45 317.257 282.391 315.723 278.088 312.848C273.786 309.973 270.432 305.887 268.452 301.106C266.472 296.325 265.954 291.064 266.963 285.989C267.973 280.914 270.465 276.252 274.124 272.593C277.783 268.934 282.445 266.442 287.52 265.432C292.595 264.423 297.856 264.941 302.637 266.921C307.418 268.901 311.504 272.255 314.379 276.558C317.254 280.86 318.788 285.919 318.788 291.093C318.788 298.032 316.032 304.687 311.125 309.594C306.218 314.501 299.563 317.257 292.624 317.257Z" fill="#6C63FF"/>
<path d="M307.343 289.85L299.926 279.024C299.763 278.786 299.554 278.582 299.312 278.424C299.07 278.267 298.799 278.158 298.515 278.105C298.232 278.052 297.94 278.055 297.657 278.115C297.375 278.175 297.106 278.289 296.868 278.453C296.63 278.616 296.426 278.825 296.268 279.067C296.111 279.309 296.002 279.579 295.949 279.863C295.896 280.147 295.899 280.439 295.959 280.722C296.019 281.004 296.133 281.272 296.297 281.511L301.094 288.512H282.301C281.961 288.512 281.625 288.578 281.311 288.707C280.998 288.837 280.713 289.027 280.472 289.267C280.232 289.506 280.042 289.791 279.912 290.105C279.782 290.418 279.715 290.754 279.715 291.093C279.715 291.433 279.782 291.769 279.912 292.082C280.042 292.396 280.232 292.68 280.472 292.92C280.713 293.16 280.998 293.35 281.311 293.479C281.625 293.609 281.961 293.675 282.301 293.674H301.33L296.297 301.021C295.968 301.502 295.844 302.094 295.952 302.666C296.06 303.239 296.39 303.746 296.871 304.075C297.351 304.404 297.943 304.529 298.516 304.423C299.089 304.316 299.596 303.987 299.926 303.507L307.343 292.681C307.585 292.248 307.712 291.761 307.712 291.266C307.712 290.77 307.585 290.283 307.343 289.85Z" fill="white"/>
<path d="M202.368 291.609L209.786 302.436C209.949 302.674 210.158 302.878 210.4 303.036C210.642 303.193 210.912 303.302 211.196 303.355C211.48 303.408 211.772 303.405 212.055 303.345C212.337 303.285 212.605 303.17 212.844 303.007C213.082 302.844 213.286 302.635 213.444 302.393C213.601 302.151 213.71 301.881 213.763 301.597C213.816 301.313 213.812 301.021 213.753 300.738C213.693 300.456 213.578 300.187 213.415 299.949L208.618 292.947L227.411 292.947C227.751 292.948 228.087 292.882 228.4 292.752C228.714 292.623 228.999 292.433 229.24 292.193C229.48 291.954 229.67 291.669 229.8 291.355C229.93 291.042 229.997 290.706 229.997 290.367C229.997 290.027 229.93 289.691 229.8 289.378C229.67 289.064 229.48 288.78 229.24 288.54C228.999 288.3 228.714 288.11 228.4 287.981C228.087 287.851 227.751 287.785 227.411 287.786L208.382 287.786L213.415 280.439C213.743 279.958 213.867 279.366 213.76 278.794C213.652 278.221 213.322 277.714 212.841 277.385C212.361 277.056 211.769 276.931 211.196 277.037C210.623 277.143 210.116 277.473 209.786 277.953L202.368 288.779C202.127 289.212 202 289.699 202 290.194C202 290.69 202.127 291.177 202.368 291.609Z" fill="white"/>
<path d="M460.467 565.314L448.382 565.313L442.632 518.694L460.47 518.695L460.467 565.314Z" fill="#FFB8B8"/>
<path d="M460.893 577.922L423.727 577.92V577.45C423.727 573.614 425.251 569.934 427.964 567.222C430.677 564.509 434.356 562.985 438.193 562.984H438.194L444.983 557.834L457.649 562.985L460.894 562.985L460.893 577.922Z" fill="#2F2E41"/>
<path d="M553.032 552.243L541.862 556.856L518.748 515.964L535.235 509.155L553.032 552.243Z" fill="#FFB8B8"/>
<path d="M558.239 563.733L523.888 577.922L523.708 577.487C522.244 573.941 522.248 569.959 523.719 566.416C525.191 562.873 528.01 560.059 531.555 558.594L531.556 558.594L535.864 551.241L549.538 551.166L552.537 549.928L558.239 563.733Z" fill="#2F2E41"/>
<path d="M519.214 316.016C519.214 316.016 509.851 286.485 513.732 274.396L535.321 273.086L537.791 316.661L525.452 367.043C525.933 368.481 526.025 370.021 525.719 371.506C525.413 372.991 524.719 374.369 523.708 375.499C522.697 376.629 521.405 377.472 519.963 377.942C518.522 378.411 516.981 378.491 515.499 378.173C514.016 377.855 512.644 377.15 511.522 376.13C510.4 375.11 509.568 373.811 509.11 372.366C508.652 370.92 508.584 369.379 508.914 367.899C509.244 366.419 509.96 365.053 510.989 363.939L519.214 316.016Z" fill="#FFB8B8"/>
<path d="M532.99 255.519L529.754 241.281C528.536 235.923 526.27 230.858 523.088 226.378C519.905 221.898 515.869 218.092 511.21 215.178C508.317 213.383 504.98 212.433 501.576 212.436C498.172 212.438 494.836 213.392 491.946 215.191C488.045 217.655 485.224 221.509 484.056 225.973C482.887 230.438 483.458 235.179 485.651 239.239C492.314 251.546 492.348 265.492 502.208 265.884L501.822 271.005L515.402 300.673L541.977 293.965L532.99 255.519Z" fill="#E6E6E6"/>
<path d="M515.204 319.874C515.204 319.874 522.118 342.87 516.666 362.501C511.214 382.133 506.819 429.484 506.819 429.484L547.517 529.985L528.583 534.866L468.089 436.039L462.382 539.691L444.131 540.439L430.355 436.638L441.282 332.241L515.204 319.874Z" fill="#2F2E41"/>
<path d="M518.261 339.943L518.372 339.788C524.275 331.523 515.396 311.662 514.057 308.783C515.647 308.267 517.009 307.215 517.912 305.808C518.814 304.4 519.2 302.723 519.005 301.063L518.427 296.156L517.826 291.342L522.137 287.031L522.149 286.924L524.63 265.216L528.237 250.798C529.596 245.348 529.48 239.634 527.901 234.243C526.322 228.852 523.337 223.978 519.252 220.122L510.915 218.798L500.782 209.035H484.441L478.838 214.388C468.379 216.222 470.582 215.623 461.598 226.405L450.3 258.726L451.318 263.337L451.315 269.591L452.919 288.041C451.986 289.078 451.308 290.318 450.94 291.663C450.571 293.007 450.521 294.42 450.795 295.787L451.135 297.489C448.465 298.634 445.917 318.971 445.308 321.812L444.399 326.055C443.621 327.082 438.485 333.929 438.485 335.801C438.485 336.082 438.693 336.354 439.138 336.655C442.638 339.025 463.778 341.46 472.339 338.034C481.458 334.388 517.708 339.858 518.073 339.914L518.261 339.943Z" fill="#E6E6E6"/>
<path d="M409 276.885C409 276.885 435.268 260.462 447.943 261.21L454.588 281.792L413.002 295.037L361.134 295.635C359.861 296.459 358.393 296.932 356.878 297.005C355.364 297.079 353.857 296.75 352.51 296.052C351.164 295.355 350.026 294.314 349.212 293.034C348.398 291.755 347.937 290.283 347.876 288.768C347.815 287.253 348.156 285.748 348.864 284.407C349.572 283.067 350.623 281.937 351.909 281.134C353.195 280.33 354.67 279.881 356.186 279.832C357.701 279.783 359.203 280.136 360.538 280.855L409 276.885Z" fill="#FFB8B8"/>
<path d="M471.021 275.16L484.004 268.479C488.89 265.965 493.231 262.51 496.777 258.312C500.324 254.114 503.005 249.256 504.667 244.018C505.684 240.77 505.773 237.302 504.923 234.005C504.073 230.709 502.318 227.716 499.856 225.365C496.498 222.2 492.063 220.429 487.448 220.409C482.834 220.389 478.384 222.122 474.998 225.258C464.738 234.776 451.241 238.283 453.316 247.929L448.261 248.831L422.91 269.372L436.025 293.439L471.021 275.16Z" fill="#E6E6E6"/>
<path d="M492.738 202.884C506.229 202.884 517.166 191.947 517.166 178.455C517.166 164.964 506.229 154.027 492.738 154.027C479.246 154.027 468.309 164.964 468.309 178.455C468.309 191.947 479.246 202.884 492.738 202.884Z" fill="#FFB8B8"/>
<path d="M475.987 150.251C477.738 150.199 477.137 146.899 478.547 145.846C478.554 145.878 478.561 145.91 478.569 145.942C478.754 146.654 479.163 147.289 479.735 147.752C480.308 148.215 481.014 148.482 481.75 148.513C482.486 148.545 483.212 148.339 483.822 147.926C484.432 147.514 484.894 146.916 485.139 146.222C485.373 145.419 485.796 144.683 486.374 144.077C486.951 143.472 487.665 143.014 488.457 142.741C488.544 145.8 490.858 148.455 493.618 149.776C496.379 151.097 499.526 151.317 502.586 151.362C505.646 151.239 508.71 151.471 511.716 152.054C514.683 152.803 517.569 154.563 518.837 157.348C520.105 160.133 519.2 163.968 516.428 165.264C518.576 165.276 520.398 167.048 521.14 169.062C521.749 171.129 521.908 173.302 521.606 175.436C521.002 183.335 519.531 191.839 513.779 197.287C509.395 201.439 503.12 203.112 497.083 203.087C491.045 203.063 492.106 202.508 486.268 200.967C492.272 201.64 490.634 174.818 480.714 173.732C480.616 173.494 480.53 173.252 480.457 173.006C480.092 171.751 479.433 170.6 478.536 169.649C477.639 168.698 476.53 167.974 475.298 167.535C474.054 167.131 472.717 167.118 471.465 167.497C470.213 167.876 469.108 168.628 468.296 169.654C461.904 163.659 465.87 150.551 475.987 150.251Z" fill="#2F2E41"/>
<path d="M629.316 578.724H596.13L595.987 578.465C595.563 577.695 595.153 576.88 594.77 576.042C591.352 568.724 589.907 560.353 588.632 552.969L587.672 547.402C587.556 546.728 587.644 546.035 587.924 545.411C588.204 544.786 588.664 544.26 589.245 543.899C589.826 543.538 590.502 543.359 591.185 543.384C591.869 543.409 592.529 543.637 593.082 544.04C598.126 547.71 603.171 551.376 608.219 555.039C610.13 556.43 612.312 558.039 614.403 559.778C614.604 558.799 614.815 557.816 615.026 556.848C615.172 556.179 615.513 555.568 616.008 555.095C616.502 554.621 617.126 554.306 617.801 554.19C618.475 554.073 619.169 554.16 619.794 554.44C620.419 554.72 620.945 555.18 621.307 555.762L625.19 562C628.022 566.556 630.521 571.045 630.012 575.887C630.015 575.946 630.01 576.005 629.999 576.062C629.897 576.858 629.708 577.639 629.435 578.393L629.316 578.724Z" fill="#27AE60"/>
<path d="M658.684 588.345L627.893 575.965L627.858 575.671C627.751 574.799 627.675 573.89 627.633 572.969C627.191 564.904 628.973 556.599 630.545 549.272L631.731 543.749C631.875 543.081 632.215 542.47 632.708 541.995C633.2 541.521 633.823 541.204 634.497 541.086C635.171 540.968 635.865 541.053 636.49 541.331C637.115 541.61 637.642 542.068 638.005 542.648C641.315 547.935 644.629 553.219 647.945 558.5C649.2 560.503 650.624 562.81 651.915 565.204C652.467 564.37 653.03 563.538 653.587 562.717C653.971 562.151 654.516 561.712 655.151 561.457C655.786 561.203 656.483 561.143 657.153 561.286C657.822 561.43 658.433 561.77 658.908 562.263C659.383 562.755 659.7 563.379 659.819 564.053L661.094 571.289C662.022 576.573 662.667 581.67 660.388 585.973C660.368 586.028 660.342 586.081 660.31 586.131C659.919 586.831 659.452 587.486 658.918 588.083L658.684 588.345Z" fill="#27AE60"/>
<path d="M662.626 579.441L347.268 579.749C346.954 579.747 346.652 579.621 346.43 579.398C346.208 579.175 346.084 578.873 346.084 578.558C346.084 578.243 346.208 577.941 346.43 577.718C346.652 577.495 346.954 577.369 347.268 577.367L662.626 577.06C662.941 577.062 663.242 577.188 663.464 577.411C663.686 577.634 663.81 577.936 663.81 578.251C663.81 578.565 663.686 578.867 663.464 579.09C663.242 579.314 662.941 579.44 662.626 579.441Z" fill="#CACACA"/>
<path d="M45.824 138.28V134.296H54.848V169H50.432V138.28H45.824ZM62.351 151.288C62.351 145.784 63.247 141.496 65.039 138.424C66.831 135.32 69.967 133.768 74.447 133.768C78.895 133.768 82.015 135.32 83.807 138.424C85.599 141.496 86.495 145.784 86.495 151.288C86.495 156.888 85.599 161.24 83.807 164.344C82.015 167.448 78.895 169 74.447 169C69.967 169 66.831 167.448 65.039 164.344C63.247 161.24 62.351 156.888 62.351 151.288ZM82.175 151.288C82.175 148.504 81.983 146.152 81.599 144.232C81.247 142.28 80.495 140.712 79.343 139.528C78.223 138.344 76.591 137.752 74.447 137.752C72.271 137.752 70.607 138.344 69.455 139.528C68.335 140.712 67.583 142.28 67.199 144.232C66.847 146.152 66.671 148.504 66.671 151.288C66.671 154.168 66.847 156.584 67.199 158.536C67.583 160.488 68.335 162.056 69.455 163.24C70.607 164.424 72.271 165.016 74.447 165.016C76.591 165.016 78.223 164.424 79.343 163.24C80.495 162.056 81.247 160.488 81.599 158.536C81.983 156.584 82.175 154.168 82.175 151.288Z" fill="#E6E6E6"/>
</g>
<defs>
<clipPath id="clip0_0_3">
<rect width="663.81" height="579.749" fill="white"/>
</clipPath>
</defs>
</svg>
