<svg width="749" height="548" viewBox="0 0 749 548" fill="none" xmlns="http://www.w3.org/2000/svg">
<g clip-path="url(#clip0_21_30)">
<path d="M342.529 390.032L342.535 388.858C345.031 388.865 347.567 388.827 350.075 388.738L350.123 389.911C347.594 390 345.044 390.038 342.529 390.032ZM334.948 389.873C332.439 389.772 329.89 389.626 327.374 389.435L327.476 388.268C329.971 388.459 332.5 388.605 334.995 388.706L334.948 389.873ZM357.69 389.512L357.595 388.338C360.09 388.16 362.613 387.932 365.094 387.659L365.244 388.827C362.742 389.099 360.199 389.328 357.69 389.512ZM319.827 388.712C317.325 388.427 314.796 388.084 312.314 387.71L312.518 386.556C314.98 386.93 317.488 387.266 319.977 387.552L319.827 388.712ZM372.757 387.862L372.559 386.702C375.027 386.34 377.523 385.921 379.977 385.465L380.222 386.613C377.754 387.076 375.238 387.494 372.757 387.862ZM304.856 386.423C302.388 385.947 299.9 385.42 297.459 384.856L297.765 383.72C300.185 384.285 302.66 384.805 305.114 385.274L304.856 386.423ZM387.633 385.078L387.333 383.942C389.767 383.391 392.222 382.788 394.622 382.147L394.969 383.276C392.548 383.917 390.08 384.526 387.633 385.078ZM290.136 383.01C287.716 382.35 285.282 381.634 282.895 380.891L283.297 379.781C285.663 380.523 288.083 381.234 290.49 381.887L290.136 383.01ZM402.216 381.19L401.822 380.073C404.195 379.344 406.588 378.551 408.927 377.733L409.369 378.83C407.016 379.661 404.609 380.454 402.216 381.19ZM275.736 378.487C273.384 377.65 271.011 376.749 268.693 375.817L269.189 374.739C271.494 375.665 273.853 376.553 276.185 377.39L275.736 378.487ZM416.399 376.21L415.909 375.132C418.207 374.225 420.519 373.261 422.769 372.271L423.306 373.331C421.036 374.326 418.71 375.297 416.399 376.21ZM261.765 372.887C259.487 371.872 257.202 370.793 254.979 369.696L255.571 368.662C257.78 369.753 260.051 370.819 262.315 371.834L261.765 372.887ZM430.092 370.191L429.507 369.15C431.723 368.072 433.947 366.937 436.102 365.776L436.727 366.791C434.559 367.958 432.322 369.1 430.092 370.191ZM248.337 366.245C246.154 365.059 243.972 363.816 241.851 362.554L242.524 361.564C244.631 362.82 246.793 364.051 248.969 365.23L248.337 366.245ZM443.227 363.15L442.554 362.161C444.662 360.924 446.783 359.623 448.843 358.304L449.557 359.268C447.477 360.6 445.348 361.907 443.227 363.15ZM235.534 358.627C233.461 357.283 231.394 355.881 229.388 354.466L230.15 353.534C232.142 354.942 234.195 356.331 236.255 357.67L235.534 358.627ZM455.717 355.151L454.969 354.213C456.968 352.824 458.967 351.371 460.911 349.893L461.7 350.8C459.742 352.284 457.729 353.75 455.717 355.151ZM223.432 350.077C221.488 348.586 219.55 347.032 217.667 345.472L218.503 344.597C220.373 346.151 222.297 347.692 224.228 349.17L223.432 350.077ZM467.493 346.233L466.663 345.358C468.54 343.817 470.409 342.218 472.218 340.607L473.081 341.457C471.266 343.074 469.383 344.686 467.493 346.233ZM212.105 340.651C210.297 339.021 208.502 337.334 206.755 335.634L207.666 334.822C209.399 336.516 211.187 338.19 212.982 339.808L212.105 340.651ZM478.466 336.465L477.568 335.653C479.309 333.979 481.029 332.247 482.702 330.503L483.64 331.283C481.954 333.033 480.22 334.784 478.466 336.465ZM201.628 330.42C199.962 328.657 198.31 326.836 196.726 325.016L197.698 324.28C199.269 326.088 200.908 327.889 202.566 329.646L201.628 330.42ZM488.576 325.91L487.604 325.162C489.195 323.354 490.772 321.502 492.281 319.643L493.281 320.354C491.765 322.219 490.18 324.09 488.576 325.91ZM192.069 319.44C190.56 317.563 189.077 315.628 187.65 313.694L188.683 313.028C190.097 314.949 191.573 316.871 193.068 318.736L192.069 319.44ZM497.748 314.62L496.714 313.947C498.149 312.025 499.556 310.059 500.902 308.093L501.963 308.721C500.61 310.706 499.189 312.685 497.748 314.62ZM183.482 307.788C182.143 305.803 180.83 303.767 179.573 301.731L180.66 301.147C181.905 303.171 183.21 305.194 184.543 307.16L183.482 307.788ZM505.92 302.682L504.839 302.086C506.104 300.062 507.341 297.995 508.51 295.933L509.619 296.485C508.442 298.559 507.198 300.64 505.92 302.682ZM175.935 295.54C174.773 293.466 173.637 291.334 172.563 289.216L173.698 288.715C174.766 290.821 175.894 292.933 177.043 295.001L175.935 295.54ZM513.045 290.155L511.91 289.647C512.991 287.541 514.045 285.385 515.037 283.234L516.193 283.697C515.194 285.86 514.133 288.03 513.045 290.155ZM169.469 282.765C168.49 280.602 167.545 278.401 166.661 276.213L167.838 275.8C168.715 277.97 169.653 280.164 170.632 282.308L169.469 282.765ZM519.055 277.126L517.879 276.707C518.777 274.519 519.64 272.286 520.436 270.073L521.625 270.447C520.823 272.673 519.96 274.919 519.055 277.126ZM164.125 269.54C163.337 267.307 162.582 265.036 161.889 262.778L163.099 262.455C163.785 264.694 164.533 266.958 165.322 269.172L164.125 269.54ZM523.91 263.692L522.706 263.362C523.407 261.129 524.073 258.846 524.678 256.575L525.895 256.86C525.283 259.144 524.617 261.446 523.91 263.692ZM159.944 255.934C159.346 253.651 158.795 251.323 158.299 249.027L159.529 248.798C160.019 251.082 160.57 253.391 161.161 255.661L159.944 255.934ZM527.574 249.959L526.344 249.724C526.847 247.441 527.309 245.119 527.717 242.81L528.955 243.001C528.547 245.322 528.084 247.663 527.574 249.959ZM156.959 242.062C156.565 239.747 156.212 237.387 155.919 235.053L157.163 234.913C157.456 237.235 157.802 239.576 158.197 241.878L156.959 242.062ZM530.036 235.992L528.791 235.852C529.097 233.531 529.356 231.177 529.567 228.862L530.818 228.957C530.607 231.292 530.348 233.657 530.036 235.992ZM155.185 228.006C154.988 225.665 154.845 223.287 154.75 220.94L156.008 220.895C156.103 223.23 156.246 225.589 156.436 227.917L155.185 228.006ZM531.293 221.891L530.036 221.84C530.144 219.506 530.199 217.14 530.206 214.812V214.425L531.463 214.432V214.819C531.457 217.159 531.402 219.538 531.293 221.891ZM155.872 213.861L154.614 213.855V213.658C154.621 211.374 154.675 209.059 154.777 206.782L156.035 206.833C155.933 209.097 155.878 211.394 155.872 213.671V213.861ZM530.07 207.397C529.974 205.07 529.825 202.71 529.628 200.376L530.879 200.287C531.076 202.634 531.225 205.012 531.321 207.353L530.07 207.397ZM156.504 199.818L155.253 199.722C155.457 197.375 155.715 195.01 156.021 192.682L157.265 192.821C156.966 195.13 156.708 197.49 156.504 199.818ZM528.893 193.379C528.601 191.064 528.248 188.724 527.853 186.415L529.097 186.231C529.499 188.552 529.852 190.912 530.144 193.24L528.893 193.379ZM158.333 185.863L157.089 185.673C157.497 183.351 157.959 181.01 158.462 178.714L159.693 178.949C159.196 181.232 158.734 183.56 158.333 185.863ZM526.507 179.495C526.011 177.205 525.46 174.896 524.868 172.631L526.085 172.352C526.684 174.629 527.235 176.951 527.738 179.26L526.507 179.495ZM161.358 172.092L160.141 171.813C160.746 169.536 161.413 167.233 162.113 164.975L163.316 165.305C162.623 167.544 161.963 169.828 161.358 172.092ZM522.931 165.844C522.237 163.605 521.489 161.347 520.701 159.127L521.891 158.759C522.686 160.992 523.441 163.263 524.134 165.521L522.931 165.844ZM165.574 158.594L164.384 158.22C165.186 155.994 166.05 153.742 166.954 151.541L168.13 151.96C167.233 154.148 166.376 156.381 165.574 158.594ZM518.178 152.499C517.294 150.317 516.349 148.128 515.377 145.991L516.533 145.534C517.512 147.684 518.464 149.885 519.355 152.086L518.178 152.499ZM170.965 145.426L169.809 144.963C170.802 142.8 171.863 140.625 172.95 138.506L174.086 139.013C173.005 141.119 171.951 143.276 170.965 145.426ZM512.297 139.597C511.23 137.491 510.101 135.379 508.945 133.317L510.06 132.772C511.23 134.846 512.365 136.977 513.44 139.096L512.297 139.597ZM177.478 132.715L176.37 132.169C177.546 130.089 178.791 128.008 180.055 125.972L181.143 126.562C179.878 128.579 178.648 130.653 177.478 132.715ZM505.315 127.165C504.064 125.141 502.758 123.124 501.426 121.152L502.486 120.524C503.826 122.503 505.145 124.539 506.403 126.575L505.315 127.165ZM185.066 120.549L184.005 119.921C185.358 117.936 186.779 115.95 188.214 114.022L189.247 114.688C187.82 116.604 186.412 118.576 185.066 120.549ZM497.279 115.291C495.858 113.369 494.382 111.453 492.886 109.588L493.893 108.884C495.402 110.762 496.891 112.69 498.319 114.625L497.279 115.291ZM193.673 108.992L192.674 108.288C194.197 106.41 195.774 104.539 197.372 102.725L198.344 103.467C196.76 105.269 195.19 107.127 193.673 108.992ZM488.25 104.051C486.672 102.243 485.034 100.442 483.375 98.6909L484.313 97.9171C485.979 99.6741 487.631 101.495 489.222 103.315L488.25 104.051ZM203.246 98.12L202.308 97.3462C203.981 95.5955 205.721 93.8448 207.468 92.1576L208.373 92.9695C206.632 94.6441 204.912 96.3821 203.246 98.12ZM478.276 93.515C476.542 91.8278 474.754 90.1532 472.959 88.5358L473.829 87.6921C475.638 89.3223 477.439 91.0095 479.187 92.7095L478.276 93.515ZM213.717 88.0093L212.846 87.1593C214.662 85.5355 216.545 83.9244 218.435 82.3703L219.265 83.252C217.388 84.7997 215.525 86.3982 213.717 88.0093ZM467.425 83.7531C465.555 82.1991 463.624 80.6641 461.693 79.1798L462.489 78.2728C464.433 79.7634 466.371 81.3111 468.261 82.8714L467.425 83.7531ZM225.016 78.7104L224.221 77.8034C226.172 76.3191 228.185 74.8539 230.197 73.4521L230.952 74.3908C228.953 75.78 226.954 77.2388 225.016 78.7104ZM455.771 74.8349C453.772 73.4267 451.719 72.0376 449.666 70.7055L450.38 69.7414C452.447 71.0798 454.513 72.4816 456.526 73.8961L455.771 74.8349ZM237.064 70.2869L236.35 69.3228C238.424 67.9907 240.552 66.6841 242.68 65.4345L243.353 66.424C241.245 67.6609 239.131 68.9612 237.064 70.2869ZM443.384 66.8046C441.269 65.5487 439.1 64.3181 436.938 63.1447L437.571 62.1298C439.746 63.3096 441.935 64.5528 444.064 65.8151L443.384 66.8046ZM249.798 62.8022L249.173 61.7809C251.349 60.6138 253.585 59.4657 255.809 58.3811L256.393 59.4213C254.177 60.4996 251.96 61.635 249.798 62.8022ZM430.337 59.7321C428.12 58.6411 425.849 57.5755 423.592 56.567L424.136 55.5077C426.414 56.5226 428.698 57.5945 430.928 58.6919L430.337 59.7321ZM263.124 56.2942L262.587 55.2349C264.858 54.2328 267.176 53.2623 269.495 52.3489L269.984 53.4272C267.686 54.3342 265.375 55.2984 263.124 56.2942ZM416.705 53.6619C414.4 52.7421 412.041 51.8478 409.702 51.0168L410.151 49.9195C412.51 50.7568 414.883 51.6511 417.201 52.5836L416.705 53.6619ZM276.96 50.8139L276.518 49.7165C278.871 48.8856 281.277 48.0927 283.671 47.3506L284.065 48.4606C281.685 49.2027 279.299 49.9893 276.96 50.8139ZM402.59 48.6446C400.217 47.9024 397.797 47.1984 395.397 46.545L395.751 45.4223C398.171 46.0756 400.605 46.7861 402.991 47.5345L402.59 48.6446ZM291.265 46.3864L290.918 45.2574C293.339 44.6104 295.807 43.9951 298.254 43.4433L298.553 44.5787C296.113 45.1369 293.665 45.7458 291.265 46.3864ZM388.122 44.7182C385.702 44.1601 383.227 43.6399 380.773 43.1705L381.024 42.0225C383.492 42.4918 385.987 43.0183 388.428 43.5828L388.122 44.7182ZM305.903 43.0564L305.658 41.9083C308.119 41.4452 310.635 41.0203 313.123 40.6524L313.321 41.8068C310.846 42.181 308.351 42.5997 305.903 43.0564ZM373.355 41.9019C370.887 41.5277 368.378 41.1915 365.896 40.9124L366.046 39.7517C368.541 40.0371 371.07 40.3733 373.559 40.7475L373.355 41.9019ZM320.786 40.8427L320.636 39.6755C323.138 39.3964 325.674 39.1681 328.183 38.9842L328.278 40.1513C325.79 40.3352 323.267 40.5699 320.786 40.8427ZM358.397 40.202C355.909 40.0117 353.38 39.8658 350.878 39.7707L350.932 38.5972C353.448 38.6924 355.997 38.8383 358.506 39.0286L358.397 40.202ZM335.805 39.7453L335.757 38.5782C338.266 38.4894 340.822 38.445 343.345 38.4513V39.6248C340.836 39.6185 338.3 39.6629 335.805 39.7453Z" fill="#3F3D56"/>
<path d="M701.695 290.58L581.966 484.048L542.389 548.004L534.849 543.945L459.545 503.381L403.331 473.1L198.929 363.004L227.525 0L701.695 290.58Z" fill="#F1F1F1"/>
<path d="M142.682 368.25C148.699 345.32 168.185 326.83 192.919 321.457C206.067 318.597 219.828 319.422 232.475 323.83C245.352 328.359 256.394 336.421 266.667 344.768C286.519 360.892 305.747 377.676 329.727 388.433C351.143 398.043 375.266 402.128 398.559 396.394C409.115 393.893 418.921 389.179 427.23 382.61C435.735 375.741 441.718 366.746 445.689 356.997C454.01 336.56 453.847 314.201 460.197 293.282C463.475 282.505 468.669 272.318 476.97 264.104C485.177 255.985 495.62 250.035 506.695 245.95C532.966 236.264 561.392 237.051 589.146 237.393C615.369 237.717 642.245 237.292 666.809 227.657C677.756 223.363 687.974 217.292 696.051 209.104C704.652 200.382 710.39 189.65 714.49 178.518C716.611 172.771 718.297 166.897 719.814 160.986C720.378 158.785 716.747 157.846 716.183 160.053C713.042 172.282 709.133 184.531 702.225 195.422C695.765 205.541 686.591 213.916 675.607 219.722C652.464 232.129 625.139 234.013 599.031 233.956C571.013 233.898 542.342 231.951 515.126 239.525C492.975 245.684 472.592 258.034 462.332 277.925C452.12 297.728 451.767 320.208 446.681 341.317C444.159 351.802 440.379 362.129 433.614 370.933C426.862 379.705 417.201 386.264 406.5 390.266C383.628 398.817 358.119 396.311 335.914 387.241C311.023 377.073 291.082 360.137 270.936 343.595C261.228 335.628 251.022 327.87 239.24 322.72C229.632 318.473 219.131 316.277 208.5 316.291C197.869 316.305 187.374 318.529 177.78 322.801C168.185 327.072 159.731 333.284 153.032 340.986C146.332 348.687 141.557 357.685 139.051 367.324C138.473 369.518 142.111 370.457 142.682 368.256V368.25Z" fill="#3F3D56"/>
<path d="M409.58 454.47H346.472C342.166 431.243 342.166 407.499 346.472 384.272H409.58C402.47 407.202 402.47 431.541 409.58 454.47Z" fill="#FF6584"/>
<path d="M173.515 384.133H236.622C240.929 360.906 240.929 337.161 236.622 313.935H173.515C180.624 336.864 180.624 361.203 173.515 384.133Z" fill="#8B80B6"/>
<path d="M186.888 343.468C189.002 342.695 191.274 342.376 193.538 342.535C195.801 342.695 197.997 343.328 199.963 344.387C203.28 346.119 206.286 348.225 210.134 348.777C213.284 349.219 216.503 348.759 219.367 347.457C223.045 345.783 225.309 342.554 228.457 340.239C230.225 338.939 227.736 336.649 225.982 337.93C222.909 340.188 220.713 343.48 216.973 344.869C212.962 346.354 209.06 345.599 205.429 343.645C202.499 342.072 199.765 340.264 196.4 339.579C192.915 338.881 189.288 339.139 185.957 340.322C183.87 341.045 184.774 344.203 186.888 343.468Z" fill="#F2F2F2"/>
<path d="M186.888 359.23C189.002 358.457 191.274 358.138 193.538 358.298C195.801 358.457 197.997 359.09 199.963 360.15C203.28 361.881 206.286 363.987 210.134 364.539C213.284 364.982 216.503 364.522 219.367 363.22C223.045 361.545 225.309 358.317 228.457 356.001C230.225 354.701 227.736 352.411 225.982 353.693C222.909 355.951 220.713 359.243 216.973 360.632C212.962 362.116 209.06 361.361 205.429 359.408C202.499 357.835 199.765 356.027 196.4 355.342C192.915 354.643 189.288 354.901 185.957 356.084C183.87 356.807 184.774 359.966 186.888 359.23Z" fill="#F2F2F2"/>
<path d="M392.378 404.9C390.265 404.127 387.992 403.808 385.728 403.967C383.465 404.127 381.269 404.76 379.304 405.819C375.986 407.551 372.981 409.657 369.132 410.209C365.983 410.652 362.763 410.191 359.9 408.889C356.221 407.215 353.957 403.986 350.809 401.671C349.042 400.371 351.53 398.081 353.284 399.362C356.357 401.62 358.553 404.912 362.293 406.301C366.304 407.786 370.207 407.031 373.837 405.077C376.768 403.504 379.501 401.696 382.866 401.011C386.351 400.313 389.978 400.571 393.309 401.754C395.397 402.477 394.492 405.636 392.378 404.9Z" fill="#F2F2F2"/>
<path d="M392.378 420.123C390.265 419.35 387.992 419.031 385.728 419.191C383.465 419.35 381.269 419.983 379.304 421.043C375.986 422.774 372.981 424.88 369.132 425.432C365.983 425.875 362.763 425.415 359.9 424.113C356.221 422.438 353.957 419.21 350.809 416.894C349.042 415.594 351.53 413.304 353.284 414.585C356.357 416.844 358.553 420.136 362.293 421.525C366.304 423.009 370.207 422.254 373.837 420.301C376.768 418.727 379.501 416.92 382.866 416.235C386.351 415.536 389.978 415.794 393.309 416.977C395.397 417.7 394.492 420.859 392.378 420.123Z" fill="#F2F2F2"/>
<path d="M392.378 435.346C390.265 434.573 387.992 434.255 385.728 434.414C383.465 434.573 381.269 435.206 379.304 436.266C375.986 437.998 372.981 440.103 369.132 440.655C365.983 441.098 362.763 440.638 359.9 439.336C356.221 437.661 353.957 434.433 350.809 432.118C349.042 430.817 351.53 428.527 353.284 429.809C356.357 432.067 358.553 435.359 362.293 436.748C366.304 438.232 370.207 437.477 373.837 435.524C376.768 433.951 379.501 432.143 382.866 431.458C386.351 430.759 389.978 431.017 393.309 432.2C395.397 432.923 394.492 436.082 392.378 435.346Z" fill="#F2F2F2"/>
<path d="M516.812 131.935C503.309 110.641 476.583 109.652 476.583 109.652C476.583 109.652 450.543 106.544 433.845 138.969C418.275 169.193 396.791 198.371 430.384 205.45L436.456 187.829L440.215 206.763C444.998 207.084 449.796 207.16 454.588 206.991C490.568 205.907 524.828 207.309 523.726 195.263C522.258 179.247 529.805 152.416 516.812 131.935Z" fill="#2F2E41"/>
<path d="M424.605 334.105L379.059 363.613C379.059 363.613 352.489 389.581 371.465 389.581C390.44 389.581 398.035 367.152 398.035 367.152L456.233 343.544L424.605 334.105Z" fill="#FFB8B8"/>
<path d="M442.955 219.011C442.955 219.011 403.1 334.099 415.753 340.004C428.405 345.91 456.24 349.449 456.24 349.449L442.955 219.011Z" fill="#D0CDE1"/>
<path d="M581.965 484.048L542.389 547.998L534.849 543.938C520.435 492.363 503.057 430.893 503.057 430.893L459.544 503.381L403.331 473.1C416.786 446.072 439.794 382.503 439.794 382.503L542.28 334.105C542.28 334.105 575.173 352.995 576.438 399.026C577.703 445.057 577.703 472.212 577.703 472.212C577.703 472.212 579.375 476.696 581.965 484.048Z" fill="#2F2E41"/>
<path d="M435.368 158.816C435.368 150.677 438.834 142.87 445.003 137.115C451.173 131.359 459.54 128.126 468.265 128.126C476.989 128.126 485.357 131.359 491.526 137.115C497.695 142.87 501.161 150.677 501.161 158.816C501.161 166.956 497.695 174.762 491.526 180.518C485.357 186.273 476.989 189.507 468.265 189.507C459.54 189.507 451.173 186.273 445.003 180.518C438.834 174.762 435.368 166.956 435.368 158.816Z" fill="#FFB8B8"/>
<path d="M467.629 184.195C467.629 184.195 475.223 206.624 467.629 214.882C460.034 223.141 509.381 203.078 509.381 203.078C509.381 203.078 491.669 179.469 496.728 168.845L467.629 184.195Z" fill="#FFB8B8"/>
<path d="M514.405 189.079C513.48 190.477 512.434 191.803 511.278 193.043C510.013 194.223 502.419 195.403 501.154 197.762C499.889 200.122 481.233 203.49 481.233 203.49L474.584 206.027C474.584 206.027 442.955 213.112 442.955 219.011C442.955 224.91 440.426 242.62 440.426 242.62C440.426 242.62 430.303 253.245 436.633 279.213C439.073 289.216 442.466 308.632 440.562 329.202C437.523 362.021 428.562 397.434 437.897 399.616C453.079 403.155 496.096 404.335 510.013 386.632C523.93 368.929 525.195 353.578 540.377 352.399C555.559 351.219 537.848 302.822 537.848 302.822L556.824 187.144C556.824 187.144 525.127 176.856 514.405 189.079Z" fill="#D0CDE1"/>
<path d="M476.195 373.432H539.303C543.609 350.205 543.609 326.461 539.303 303.234H476.195C483.305 326.163 483.305 350.503 476.195 373.432Z" fill="#8B80B6"/>
<path d="M489.318 327.16C491.431 326.387 493.704 326.068 495.967 326.227C498.231 326.387 500.427 327.02 502.392 328.079C505.71 329.811 508.715 331.917 512.563 332.469C515.713 332.912 518.932 332.452 521.796 331.15C525.474 329.475 527.738 326.246 530.886 323.931C532.654 322.631 530.165 320.341 528.411 321.622C525.338 323.88 523.142 327.172 519.403 328.562C515.391 330.046 511.489 329.291 507.858 327.337C504.928 325.764 502.195 323.957 498.829 323.272C495.344 322.573 491.717 322.831 488.386 324.014C486.299 324.737 487.203 327.896 489.318 327.16Z" fill="#F2F2F2"/>
<path d="M489.318 342.383C491.431 341.61 493.704 341.291 495.967 341.451C498.231 341.61 500.427 342.243 502.392 343.303C505.71 345.034 508.715 347.14 512.563 347.692C515.713 348.135 518.932 347.675 521.796 346.373C525.474 344.698 527.738 341.47 530.886 339.154C532.654 337.854 530.165 335.564 528.411 336.846C525.338 339.104 523.142 342.396 519.403 343.785C515.391 345.269 511.489 344.514 507.858 342.561C504.928 340.988 502.195 339.18 498.829 338.495C495.344 337.796 491.717 338.054 488.386 339.237C486.299 339.96 487.203 343.119 489.318 342.383Z" fill="#F2F2F2"/>
<path d="M580.232 260.92L534.686 290.427C534.686 290.427 508.116 316.396 527.091 316.396C546.067 316.396 553.662 293.967 553.662 293.967L611.86 270.358L580.232 260.92Z" fill="#FFB8B8"/>
<path d="M501.984 129.879L475.584 116.978L459.021 119.375C453.154 120.225 447.695 122.7 443.355 126.48C439.014 130.26 435.992 135.171 434.681 140.574L431.581 153.336L450.36 152.664L455.602 141.246L455.608 152.473L464.27 152.162L469.301 133.983L472.442 153.336L503.241 152.752L501.984 129.879Z" fill="#2F2E41"/>
<path d="M547.972 189.504L556.831 187.144C556.831 187.144 646.664 221.377 644.135 250.885C641.606 280.393 645.4 280.393 630.218 281.573C615.036 282.752 570.755 268.588 572.019 266.229C573.284 263.869 582.129 252.065 582.129 252.065L547.965 227.276L547.972 189.504Z" fill="#D0CDE1"/>
<path d="M496.096 158.816C496.096 157.564 496.629 156.363 497.578 155.477C498.528 154.591 499.815 154.094 501.157 154.094C502.5 154.094 503.787 154.591 504.737 155.477C505.686 156.363 506.219 157.564 506.219 158.816C506.219 160.069 505.686 161.27 504.737 162.156C503.787 163.041 502.5 163.539 501.157 163.539C499.815 163.539 498.528 163.041 497.578 162.156C496.629 161.27 496.096 160.069 496.096 158.816Z" fill="#FFB8B8"/>
<path d="M550.881 237.622C583.903 235.96 617.381 240.33 649.866 232.877C652.218 232.338 651.226 228.945 648.867 229.49C616.735 236.861 583.55 232.465 550.888 234.108C548.474 234.228 548.46 237.749 550.888 237.622H550.881Z" fill="#3F3D56"/>
<path d="M696.63 288.873L748.995 256.017C738.675 234.499 724.472 214.795 707.005 197.762L654.64 230.619C674.255 245.945 688.814 266.144 696.63 288.873Z" fill="#8B80B6"/>
<path d="M683.406 248.164C684.697 246.423 686.391 244.975 688.364 243.928C690.337 242.882 692.537 242.263 694.801 242.119C698.588 241.827 702.348 242.011 705.869 240.47C708.749 239.197 711.146 237.137 712.743 234.565C714.79 231.26 714.742 227.397 715.973 223.838C716.659 221.84 713.226 221.232 712.539 223.211C711.343 226.686 711.492 230.556 709.214 233.657C706.78 236.981 703.089 238.383 698.901 238.649C695.528 238.865 692.183 238.795 688.981 239.975C685.67 241.209 682.813 243.31 680.754 246.026C679.456 247.714 682.094 249.864 683.406 248.151V248.164Z" fill="#F2F2F2"/>
<path d="M692.836 261.25C694.126 259.508 695.821 258.06 697.794 257.014C699.766 255.967 701.966 255.349 704.231 255.205C708.018 254.913 711.777 255.097 715.299 253.555C718.178 252.284 720.575 250.227 722.173 247.656C724.219 244.352 724.172 240.489 725.402 236.93C726.089 234.932 722.656 234.323 721.969 236.302C720.772 239.778 720.922 243.648 718.644 246.749C716.21 250.073 712.518 251.475 708.33 251.741C704.958 251.957 701.613 251.887 698.411 253.067C695.1 254.301 692.242 256.402 690.184 259.118C688.885 260.806 691.523 262.956 692.836 261.243V261.25Z" fill="#F2F2F2"/>
<path d="M0.224364 32.0703L264.899 32.8758L264.675 96.4518L0 95.6462L0.224364 32.0703Z" fill="#3F3D56"/>
<path d="M13.2036 63.8614C13.2036 59.2739 15.157 54.8742 18.634 51.6303C22.1111 48.3864 26.8269 46.564 31.7442 46.564C36.6615 46.564 41.3774 48.3864 44.8544 51.6303C48.3315 54.8742 50.2848 59.2739 50.2848 63.8614C50.2848 68.449 48.3315 72.8486 44.8544 76.0925C41.3774 79.3364 36.6615 81.1588 31.7442 81.1588C26.8269 81.1588 22.1111 79.3364 18.634 76.0925C15.157 72.8486 13.2036 68.449 13.2036 63.8614Z" fill="#8B80B6"/>
<path d="M70.6952 49.393L147.407 49.6277L147.387 54.7148L70.6748 54.4801L70.6952 49.393Z" fill="white"/>
<path d="M70.6542 61.6033L239.709 62.1171L239.689 67.2042L70.6338 66.6904L70.6542 61.6033Z" fill="white"/>
<path d="M70.6068 73.8136L239.662 74.3274L239.641 79.4145L70.5864 78.9007L70.6068 73.8136Z" fill="white"/>
<path d="M0.224364 201.429L264.899 202.234L264.675 265.81L0 265.005L0.224364 201.429Z" fill="#3F3D56"/>
<path d="M13.2036 233.22C13.2036 228.632 15.157 224.233 18.634 220.989C22.1111 217.745 26.8269 215.922 31.7442 215.922C36.6615 215.922 41.3774 217.745 44.8544 220.989C48.3315 224.233 50.2848 228.632 50.2848 233.22C50.2848 237.807 48.3315 242.207 44.8544 245.451C41.3774 248.695 36.6615 250.517 31.7442 250.517C26.8269 250.517 22.1111 248.695 18.634 245.451C15.157 242.207 13.2036 237.807 13.2036 233.22Z" fill="#8B80B6"/>
<path d="M70.6952 218.751L147.407 218.986L147.387 224.073L70.6748 223.839L70.6952 218.751Z" fill="white"/>
<path d="M70.6542 230.962L239.709 231.475L239.689 236.563L70.6338 236.049L70.6542 230.962Z" fill="white"/>
<path d="M70.6068 243.172L239.662 243.686L239.641 248.773L70.5864 248.259L70.6068 243.172Z" fill="white"/>
<path d="M328.591 180.389L63.9163 181.194L63.6919 117.618L328.366 116.813L328.591 180.389Z" fill="#3F3D56"/>
<path d="M278.306 148.604C278.306 144.016 280.26 139.617 283.737 136.373C287.214 133.129 291.929 131.307 296.847 131.307C301.764 131.307 306.48 133.129 309.957 136.373C313.434 139.617 315.387 144.016 315.387 148.604C315.387 153.192 313.434 157.591 309.957 160.835C306.48 164.079 301.764 165.901 296.847 165.901C291.929 165.901 287.214 164.079 283.737 160.835C280.26 157.591 278.306 153.192 278.306 148.604Z" fill="#8B80B6"/>
<path d="M257.91 139.223L181.198 139.457L181.177 134.37L257.889 134.136L257.91 139.223Z" fill="white"/>
<path d="M257.957 151.433L88.9022 151.947L88.8818 146.86L257.937 146.346L257.957 151.433Z" fill="white"/>
<path d="M257.998 163.643L88.9433 164.157L88.9229 159.07L257.978 158.556L257.998 163.643Z" fill="white"/>
</g>
<defs>
<clipPath id="clip0_21_30">
<rect width="749" height="548" fill="white"/>
</clipPath>
</defs>
</svg>
